<?xml version="1.0" encoding="utf-8"?>
<!-- Generator: Adobe Illustrator 16.0.0, SVG Export Plug-In . SVG Version: 6.00 Build 0)  -->
<!DOCTYPE svg PUBLIC "-//W3C//DTD SVG 1.1//EN" "http://www.w3.org/Graphics/SVG/1.1/DTD/svg11.dtd">
<svg version="1.1" id="Layer_1" xmlns="http://www.w3.org/2000/svg" xmlns:xlink="http://www.w3.org/1999/xlink" x="0px" y="0px"
	 width="17px" height="17px" viewBox="0 0 17 17" enable-background="new 0 0 17 17" xml:space="preserve">
<g>
	<g>
		<path fill="#7F8992" d="M15.6,2.602h-2.86V0.795C12.738,0.357,12.382,0,11.943,0h-7.18C4.325,0,3.969,0.357,3.969,0.795v1.807H1.4
			c-0.221,0-0.4,0.18-0.4,0.4c0,0.22,0.18,0.4,0.4,0.4h0.741l0.505,12.161C2.678,16.369,3.334,17,4.141,17h8.718
			c0.808,0,1.464-0.631,1.494-1.438l0.506-12.161h0.74c0.221,0,0.4-0.18,0.4-0.4C16,2.782,15.82,2.602,15.6,2.602z M4.77,0.801
			h7.167v1.801H4.77V0.801z M13.553,15.533c-0.014,0.373-0.318,0.666-0.693,0.666H4.141c-0.375,0-0.68-0.293-0.693-0.666
			L2.942,3.402h11.115L13.553,15.533z"/>
	</g>
</g>
<g>
	<g>
		<path fill="#7F8992" d="M5.918,7.029c-0.005-0.219-0.184-0.393-0.4-0.393c-0.002,0-0.006,0-0.008,0
			C5.289,6.641,5.113,6.823,5.117,7.044l0.126,6.528c0.004,0.219,0.183,0.393,0.399,0.393c0.003,0,0.006,0,0.008,0
			c0.221-0.004,0.396-0.188,0.393-0.406L5.918,7.029z"/>
	</g>
</g>
<g>
	<g>
		<path fill="#7F8992" d="M8.354,6.637c-0.221,0-0.4,0.179-0.4,0.4v6.527c0,0.222,0.18,0.399,0.4,0.399s0.4-0.179,0.4-0.399V7.037
			C8.754,6.815,8.574,6.637,8.354,6.637z"/>
	</g>
</g>
<g>
	<g>
		<path fill="#7F8992" d="M11.197,6.637c-0.221-0.006-0.403,0.171-0.408,0.393l-0.125,6.529c-0.004,0.221,0.172,0.402,0.393,0.406
			c0.002,0,0.006,0,0.008,0c0.218,0,0.396-0.174,0.399-0.393l0.126-6.528C11.594,6.823,11.418,6.641,11.197,6.637z"/>
	</g>
</g>
<g>
	<g>
		<path fill="#7F8992" d="M15.6,2.602h-2.86V0.795C12.738,0.357,12.382,0,11.943,0h-7.18C4.325,0,3.969,0.357,3.969,0.795v1.807H1.4
			c-0.221,0-0.4,0.18-0.4,0.4c0,0.22,0.18,0.4,0.4,0.4h0.741l0.505,12.161C2.678,16.369,3.334,17,4.141,17h8.718
			c0.808,0,1.464-0.631,1.494-1.438l0.506-12.161h0.74c0.221,0,0.4-0.18,0.4-0.4C16,2.782,15.82,2.602,15.6,2.602z M4.77,0.801
			h7.167v1.801H4.77V0.801z M13.553,15.533c-0.014,0.373-0.318,0.666-0.693,0.666H4.141c-0.375,0-0.68-0.293-0.693-0.666
			L2.942,3.402h11.115L13.553,15.533z"/>
	</g>
</g>
<g>
	<g>
		<path fill="#7F8992" d="M5.918,7.029c-0.005-0.219-0.184-0.393-0.4-0.393c-0.002,0-0.006,0-0.008,0
			C5.289,6.641,5.113,6.823,5.117,7.044l0.126,6.528c0.004,0.219,0.183,0.393,0.399,0.393c0.003,0,0.006,0,0.008,0
			c0.221-0.004,0.396-0.188,0.393-0.406L5.918,7.029z"/>
	</g>
</g>
<g>
	<g>
		<path fill="#7F8992" d="M8.354,6.637c-0.221,0-0.4,0.179-0.4,0.4v6.527c0,0.222,0.18,0.399,0.4,0.399s0.4-0.179,0.4-0.399V7.037
			C8.754,6.815,8.574,6.637,8.354,6.637z"/>
	</g>
</g>
<g>
	<g>
		<path fill="#7F8992" d="M11.197,6.637c-0.221-0.006-0.403,0.171-0.408,0.393l-0.125,6.529c-0.004,0.221,0.172,0.402,0.393,0.406
			c0.002,0,0.006,0,0.008,0c0.218,0,0.396-0.174,0.399-0.393l0.126-6.528C11.594,6.823,11.418,6.641,11.197,6.637z"/>
	</g>
</g>
</svg>
