<?xml version="1.0" encoding="UTF-8"?>
<!-- Generator: Adobe Illustrator 19.1.1, SVG Export Plug-In . SVG Version: 6.00 Build 0)  -->
<svg version="1.1" xmlns="http://www.w3.org/2000/svg" xmlns:xlink="http://www.w3.org/1999/xlink" x="0px" y="0px" width="644.147px" height="229.947px" viewBox="0 0 644.147 229.947" enable-background="new 0 0 644.147 229.947" xml:space="preserve">
<g id="Shape_3_copy_2_1_">
	<g id="Shape_3_copy_2">
		<path fill-rule="evenodd" clip-rule="evenodd" fill="#3DB3EA" d="M239.73,97.163c-7.792,0-14.671,3.935-18.81,9.942    c-0.384,0.373-0.756,0.764-1.11,1.179c0,0-10.721,4.418-23.544,4.418h-0.882c-9.63,0-18.073-2.491-21.682-3.732    c-3.941-7.043-11.471-11.807-20.118-11.807c-9.616,0-17.852,5.889-21.305,14.255h-22.519c-4.581,0-8.296,3.715-8.296,8.297    c0,4.582,3.714,8.297,8.296,8.297h22.147c1.633,4.523,4.644,8.386,8.526,11.088c0.372,0.386,0.761,0.761,1.174,1.118    c0,0,4.395,10.776,4.395,23.666v0.887c0,10.007-2.648,18.736-3.833,22.143c-6.943,3.968-11.626,11.436-11.626,20.003    c0,12.72,10.316,23.031,23.041,23.031c12.725,0,23.04-10.312,23.04-23.031c0-8.556-4.671-16.017-11.6-19.988    c-1.183-3.396-3.838-12.137-3.838-22.157v-0.887c0-12.89,4.396-23.666,4.396-23.666c0.431-0.372,0.837-0.764,1.224-1.168    c2.724-1.912,5.013-4.398,6.695-7.282c3.484-1.214,12.064-3.803,21.883-3.803h0.882c12.823,0,23.544,4.418,23.544,4.418    c0.37,0.434,0.76,0.842,1.162,1.23c4.145,5.966,10.999,9.869,18.759,9.869c12.654,0,22.912-10.369,22.912-23.16    C262.642,107.532,252.384,97.163,239.73,97.163z M49.134,41.946c-12.725,0-23.041,10.312-23.041,23.03    c0,12.72,10.316,23.031,23.041,23.031c12.725,0,23.04-10.311,23.04-23.031C72.174,52.258,61.859,41.946,49.134,41.946z     M101.359,140.653c-12.725,0-23.041,10.311-23.041,23.03c0,12.72,10.315,23.031,23.041,23.031    c12.725,0,23.041-10.311,23.041-23.031C124.399,150.964,114.083,140.653,101.359,140.653z M61.132,140.218    c0.432-0.372,0.837-0.764,1.224-1.168c5.936-4.166,9.819-11.056,9.819-18.856c0-12.72-10.315-23.03-23.04-23.03    c-12.725,0-23.041,10.311-23.041,23.03c0,7.832,3.914,14.746,9.89,18.907c0.372,0.386,0.761,0.761,1.174,1.118    c0,0,4.395,10.776,4.395,23.666v0.887c0,10.007-2.648,18.736-3.833,22.143c-6.943,3.968-11.626,11.436-11.626,20.003    c0,12.72,10.316,23.031,23.041,23.031c12.725,0,23.04-10.312,23.04-23.031c0-8.556-4.671-16.017-11.6-19.988    c-1.183-3.396-3.838-12.137-3.838-22.157v-0.887C56.736,150.994,61.132,140.218,61.132,140.218z"/>
	</g>
</g>
<g id="Shape_13_1_">
	<g id="Shape_13">
		<path fill-rule="evenodd" clip-rule="evenodd" fill="#3DB3EA" d="M49.134,21.616c-14.15,0-26.596,7.441-33.692,18.629l8.166,8.208    c4.799-9.264,14.436-15.608,25.526-15.608c11.089,0,20.727,6.345,25.525,15.608l8.166-8.208    C75.729,29.058,63.284,21.616,49.134,21.616z M49.134,0C29.068,0,11.22,9.721,0,24.723l8.523,8.567    c8.783-12.714,23.405-21.06,39.936-21.06c16.879,0,31.77,8.699,40.485,21.866l9.325-9.373C87.049,9.722,69.201,0,49.134,0z"/>
	</g>
</g>
<g id="Connect_1_">
	<g>
		<g id="Connect">
			<g>
				<path fill-rule="evenodd" clip-rule="evenodd" fill="#FFFFFF" d="M410.437,210.843l-33.95-56.476h-10.609v56.397l-33.903-56.397      h-10.609v71.536h9.761v-56.476l33.95,56.476h10.609v-0.419l-0.047-0.07v-55.986l33.949,56.476h10.609v-71.536h-9.76V210.843z       M433.946,192.436h34.375v-7.948h-34.375v-22.172h36.921v-7.948h-46.682v71.536h48.804v-7.948h-39.043V192.436z M518.143,214.19      c-3.116,3.072-7.499,4.601-13.155,4.601c-5.378,0-9.907-1.81-13.58-5.438c-5.093-5.02-7.639-12.688-7.639-23.009      c0-10.314,2.546-17.988,7.639-23.008c3.958-3.902,8.487-5.857,13.58-5.857c4.807,0,8.911,1.674,12.307,5.02      c3.109,3.072,4.946,7.53,5.517,13.387h10.185c-0.285-7.805-2.971-14.224-8.063-19.244c-4.815-4.738-11.458-7.111-19.945-7.111      c-8.488,0-15.424,2.654-20.795,7.948c-7.075,6.975-10.609,16.597-10.609,28.865c0,11.995,3.534,21.479,10.609,28.447      c5.371,5.302,12.307,7.948,20.795,7.948c9.051,0,15.98-2.366,20.794-7.111c5.371-5.295,8.202-12.688,8.487-22.172h-10.185      C524.083,204.712,522.101,210.287,518.143,214.19z M531.892,154.367v7.948h24.189v63.588h9.762v-63.588h24.19v-7.948H531.892z       M236.999,214.19c-3.117,3.072-7.499,4.601-13.156,4.601c-5.378,0-9.907-1.81-13.58-5.438      c-5.092-5.02-7.639-12.688-7.639-23.009c0-10.314,2.546-17.988,7.639-23.008c3.958-3.902,8.488-5.857,13.58-5.857      c4.807,0,8.912,1.674,12.307,5.02c3.11,3.072,4.947,7.53,5.517,13.387h10.185c-0.285-7.805-2.971-14.224-8.063-19.244      c-4.813-4.738-11.458-7.111-19.945-7.111c-8.488,0-15.423,2.654-20.794,7.948c-7.075,6.975-10.609,16.597-10.609,28.865      c0,11.995,3.534,21.479,10.609,28.447c5.371,5.302,12.307,7.948,20.794,7.948c9.051,0,15.98-2.366,20.794-7.111      c5.371-5.295,8.202-12.688,8.487-22.172H242.94C242.94,204.712,240.957,210.287,236.999,214.19z M285.972,153.53      c-8.487,0-15.702,2.929-21.643,8.785c-6.79,6.693-10.185,15.898-10.185,27.61c0,11.714,3.395,20.917,10.185,27.61      c5.941,5.856,13.156,8.785,21.643,8.785c8.487,0,15.702-2.929,21.643-8.785c6.791-6.693,10.186-15.896,10.186-27.61      c0-11.713-3.395-20.917-10.186-27.61C301.674,156.459,294.459,153.53,285.972,153.53z M300.4,212.098      c-4.243,4.184-9.058,6.275-14.429,6.275c-5.378,0-10.185-2.092-14.429-6.275c-4.814-4.739-7.214-12.132-7.214-22.172      c0-10.04,2.4-17.427,7.214-22.172c4.244-4.184,9.051-6.275,14.429-6.275c5.371,0,10.186,2.092,14.429,6.275      c4.808,4.745,7.214,12.132,7.214,22.172C307.614,199.966,305.208,207.358,300.4,212.098z"/>
			</g>
		</g>
		<g>
			<g>
				<path fill="#FFFFFF" d="M582.684,123.669h9.696v28.346h5.39v-28.346h9.697v-4.623h-24.783V123.669z M636.525,119.046      l-9.427,26.227h-0.135l-9.155-26.227h-7.6v32.969h4.892v-16.033c0-3.577-0.127-7.411-0.383-11.501h0.181l9.562,27.534h4.758      l9.899-27.488h0.181c-0.06,0.556-0.132,2.149-0.215,4.78c-0.082,2.631-0.124,4.766-0.124,6.404v16.304h5.187v-32.969H636.525z"/>
			</g>
		</g>
	</g>
</g>
</svg>