<?xml version="1.0" encoding="utf-8"?>
<!-- Generator: Adobe Illustrator 16.0.0, SVG Export Plug-In . SVG Version: 6.00 Build 0)  -->
<!DOCTYPE svg PUBLIC "-//W3C//DTD SVG 1.1//EN" "http://www.w3.org/Graphics/SVG/1.1/DTD/svg11.dtd">
<svg version="1.1" id="Layer_1" xmlns="http://www.w3.org/2000/svg" xmlns:xlink="http://www.w3.org/1999/xlink" x="0px" y="0px"
	 width="20px" height="80px" viewBox="0 0 20 80" enable-background="new 0 0 20 80" xml:space="preserve">
<g>
	<path fill="#FFFFFF" d="M3.333,79.5C1.77,79.5,0.5,78.229,0.5,76.668V63.333c0-1.562,1.271-2.833,2.833-2.833h13.333
		c1.563,0,2.833,1.271,2.833,2.833v13.334c0,1.562-1.271,2.832-2.833,2.832L3.333,79.5L3.333,79.5z"/>
	<path fill="#FF0000" d="M16.667,61C17.953,61,19,62.047,19,63.333v13.334C19,77.954,17.953,79,16.667,79H3.333
		C2.047,79,1,77.954,1,76.668V63.333C1,62.047,2.047,61,3.333,61H16.667 M16.667,60H3.333C1.493,60,0,61.493,0,63.333v13.334
		C0,78.51,1.493,80,3.333,80h13.333C18.508,80,20,78.51,20,76.668V63.333C20,61.493,18.508,60,16.667,60L16.667,60z"/>
</g>
<g>
	<path fill="#FFFFFF" d="M3.333,19.5C1.77,19.5,0.5,18.229,0.5,16.668V3.333C0.5,1.771,1.771,0.5,3.333,0.5h13.333
		c1.563,0,2.833,1.271,2.833,2.833v13.334c0,1.562-1.271,2.832-2.833,2.832L3.333,19.5L3.333,19.5z"/>
	<path fill="#888888" d="M16.667,1C17.953,1,19,2.047,19,3.333v13.334C19,17.954,17.953,19,16.667,19H3.333
		C2.047,19,1,17.954,1,16.668V3.333C1,2.047,2.047,1,3.333,1H16.667 M16.667,0H3.333C1.493,0,0,1.493,0,3.333v13.334
		C0,18.51,1.493,20,3.333,20h13.333C18.508,20,20,18.51,20,16.668V3.333C20,1.493,18.508,0,16.667,0L16.667,0z"/>
</g>
<g>
	<g>
		<path fill="#FFFFFF" d="M3.334,49.5c-1.563,0-2.834-1.271-2.834-2.832V33.334c0-1.563,1.271-2.834,2.834-2.834h13.333
			c1.563,0,2.833,1.271,2.833,2.834v13.334c0,1.563-1.271,2.832-2.833,2.832H3.334z"/>
		<path fill="#2196f3" d="M16.667,31C17.953,31,19,32.047,19,33.334v13.334C19,47.954,17.953,49,16.667,49H3.334
			C2.047,49,1,47.954,1,46.668V33.334C1,32.047,2.047,31,3.334,31H16.667 M16.667,30H3.334C1.492,30,0,31.492,0,33.334v13.334
			C0,48.51,1.492,50,3.334,50h13.333C18.508,50,20,48.51,20,46.668V33.334C20,31.492,18.508,30,16.667,30L16.667,30z"/>
	</g>
	<path fill="#2196f3" d="M15.874,35.869c-0.381-0.401-1.015-0.418-1.414-0.039l-6.515,6.167l-2.336-2.715
		c-0.359-0.419-0.992-0.466-1.41-0.105c-0.418,0.361-0.466,0.991-0.105,1.409l3.021,3.512c0.006,0.006,0.014,0.01,0.021,0.018
		c0.004,0.005,0.006,0.013,0.011,0.018c0.034,0.036,0.073,0.061,0.111,0.09c0.028,0.021,0.054,0.049,0.083,0.066
		c0.049,0.031,0.102,0.053,0.153,0.072c0.03,0.014,0.058,0.031,0.088,0.039c0.06,0.019,0.12,0.023,0.181,0.029
		c0.026,0.004,0.052,0.012,0.078,0.014c0.088,0.002,0.176-0.004,0.262-0.024c0.08-0.019,0.158-0.049,0.231-0.089
		c0.021-0.012,0.04-0.027,0.061-0.04c0.044-0.026,0.09-0.051,0.13-0.087c0.006-0.003,0.008-0.012,0.014-0.016
		c0.006-0.008,0.016-0.01,0.021-0.018l7.276-6.887C16.236,36.902,16.255,36.271,15.874,35.869z"/>
</g>
</svg>
