<?xml version="1.0" encoding="utf-8"?>
<!-- Generator: Adobe Illustrator 16.0.0, SVG Export Plug-In . SVG Version: 6.00 Build 0)  -->
<!DOCTYPE svg PUBLIC "-//W3C//DTD SVG 1.1//EN" "http://www.w3.org/Graphics/SVG/1.1/DTD/svg11.dtd">
<svg version="1.1" id="Layer_1" xmlns="http://www.w3.org/2000/svg" xmlns:xlink="http://www.w3.org/1999/xlink" x="0px" y="0px"
	 width="20px" height="80.014px" viewBox="0 0 20 80.014" enable-background="new 0 0 20 80.014" xml:space="preserve">
<g>
	<path fill="#ffffff" d="M10,19.5c-5.238,0-9.5-4.262-9.5-9.5S4.762,0.5,10,0.5c5.238,0,9.5,4.262,9.5,9.5S15.238,19.5,10,19.5z"/>
	<path fill="#8A8A8A" d="M10,1c4.963,0,9,4.038,9,9s-4.037,9-9,9c-4.962,0-9-4.038-9-9S5.038,1,10,1 M10,0C4.477,0,0,4.477,0,10
		s4.477,10,10,10c5.521,0,10-4.477,10-10S15.521,0,10,0L10,0z"/>
</g>
<g>
	<path fill="#eeeeee" d="M10,79.514c-5.238,0-9.5-4.262-9.5-9.5s4.262-9.5,9.5-9.5c5.238,0,9.5,4.262,9.5,9.5
		S15.238,79.514,10,79.514z"/>
	<path fill="#FF0000" d="M10,61.014c4.963,0,9,4.038,9,9s-4.037,9-9,9c-4.962,0-9-4.038-9-9S5.038,61.014,10,61.014 M10,60.014
		c-5.523,0-10,4.477-10,10s4.477,10,10,10c5.521,0,10-4.477,10-10S15.521,60.014,10,60.014L10,60.014z"/>
</g>
<g>
	<path fill="#ffffff" d="M10,49.5c-5.238,0-9.5-4.262-9.5-9.5s4.262-9.5,9.5-9.5c5.238,0,9.5,4.262,9.5,9.5S15.238,49.5,10,49.5z"/>
	<path fill="#8A8A8A" d="M10,31c4.963,0,9,4.037,9,9s-4.037,9-9,9c-4.962,0-9-4.037-9-9S5.038,31,10,31 M10,30
		C4.477,30,0,34.477,0,40s4.477,10,10,10c5.521,0,10-4.477,10-10S15.521,30,10,30L10,30z"/>
</g>
<circle fill="#2196f3" cx="10" cy="40" r="4.75"/>
</svg>
