<?xml version="1.0" encoding="utf-8"?>
<!-- Generator: Adobe Illustrator 16.0.0, SVG Export Plug-In . SVG Version: 6.00 Build 0)  -->
<!DOCTYPE svg PUBLIC "-//W3C//DTD SVG 1.1//EN" "http://www.w3.org/Graphics/SVG/1.1/DTD/svg11.dtd">
<svg version="1.1" id="Layer_1" xmlns="http://www.w3.org/2000/svg" xmlns:xlink="http://www.w3.org/1999/xlink" x="0px" y="0px"
	 width="17px" height="17px" viewBox="0 0 17 17" enable-background="new 0 0 17 17" xml:space="preserve">
<g>
	<g>
		<path fill="#7F8992" d="M0.019,12.836L0,16.355c0,0.196,0.073,0.396,0.217,0.541c0.144,0.145,0.325,0.217,0.524,0.217l3.502-0.021
			c0.198,0,0.379-0.071,0.522-0.215L16.861,4.784c0.287-0.288,0.287-0.758,0-1.065l-3.469-3.502c-0.287-0.289-0.758-0.289-1.064,0
			L9.911,2.654l-9.676,9.657C0.109,12.455,0.019,12.637,0.019,12.836z M12.872,1.805l2.437,2.438l-1.371,1.371L11.5,3.177
			L12.872,1.805z M1.517,13.158l8.917-8.916l2.438,2.436l-8.918,8.899l-2.455,0.019L1.517,13.158z"/>
	</g>
</g>
</svg>
